# xmcd CD database file
#
# Track frame offsets:
#	150
#	10132
#	26905
#	39898
#	53840
#	74413
#	88108
#	100124
#	110639
#	124269
#	143838
#	163297
#	179511
#	200729
#	214579
#	234633
#
# Disc length: 3516 seconds
#
# Revision: 0
# Processed by: cddbd v1.5.2PL0 Copyright (c) Steve Scherf et al.
# Submitted via: CDex 1.51
#
DISCID=ea0dba10
DTITLE=Jo-Ann Kelly - Blues and Gospel - Rare and Unreleased Recordings
DYEAR=2004
DGENRE=Blues
TTITLE0=Long Black Hair
TTITLE1=Boyfriend Blues
TTITLE2=New Milk Cow blues
TTITLE3=I Looked Down The Line
TTITLE4=Who's Been Telling You Buddie Brown Eyes
TTITLE5=Black Rat Swing
TTITLE6=Walking Blues
TTITLE7=Just Like I Treat You
TTITLE8=Sugar Babe (Ain't Got No Loving Now)
TTITLE9=The Girl I Love, She Got Long Curly Hair
TTITLE10=Special Rider Blues
TTITLE11=Someday Baby Blues
TTITLE12=Moon Going Down
TTITLE13=Make Me A Pallet
TTITLE14=Sweet Nuthins
TTITLE15=Big Boss Man
EXTD=YEAR: 2004
EXTT0=
EXTT1=
EXTT2=
EXTT3=
EXTT4=
EXTT5=
EXTT6=
EXTT7=
EXTT8=
EXTT9=
EXTT10=
EXTT11=
EXTT12=
EXTT13=
EXTT14=
EXTT15=
PLAYORDER=
